<?xml version="1.0" encoding="utf-8"?>
<!-- Generator: Adobe Illustrator 16.0.3, SVG Export Plug-In . SVG Version: 6.00 Build 0)  -->
<!DOCTYPE svg PUBLIC "-//W3C//DTD SVG 1.1//EN" "http://www.w3.org/Graphics/SVG/1.1/DTD/svg11.dtd">
<svg version="1.1" id="Layer_1" xmlns="http://www.w3.org/2000/svg" xmlns:xlink="http://www.w3.org/1999/xlink" x="0px" y="0px"
	 width="1024px" height="420px" viewBox="0 0 1024 420" enable-background="new 0 0 1024 420" xml:space="preserve">
<g>
	<path fill="#686868" d="M228.36,57h-38.92L58,186.44v39.619L188.94,357h39.92l1.25-1.76L145,270.016l148.75-148.053L228.36,57z
		 M88.5,199.11L201.87,87h14.05l35.4,34.713l-42.67,42.232l-84.611,84.797L88.5,213.796"/>
	<polyline fill="#00BDFF" points="360,232 360,270.78 358.64,272.39 295.125,209 295.5,209 295,209 274.04,187.79 283.07,178.625 
		295.25,166.383 307.43,178.531 316.46,187.556 330.5,201.578 337.68,208.754 358.64,187.542 360,189.15 360,228 	"/>
	<polyline fill="#00BDFF" points="316.21,314.82 295.25,293.85 274.04,314.883 295.25,336.062 274.04,357.256 189.19,272.391 
		210.4,251.18 210.5,251.28 252.82,293.6 273.79,272.39 231.61,230.21 252.82,208.875 337.68,293.604 	"/>
	
		<rect x="131.64" y="167.859" transform="matrix(0.7071 -0.7071 0.7071 0.7071 -86.3518 157.2539)" fill="#686868" width="30" height="30.001"/>
	
		<rect x="173.36" y="126.141" transform="matrix(0.7071 -0.7071 0.7071 0.7071 -44.6329 174.5243)" fill="#686868" width="30" height="30"/>
	<path fill="#00BDFF" d="M179,389h-0.1L30,240.28l0,0V175L175.811,30h68.17l0,0L390,176.01v105.48l0,0l-31.673,32.12l21.617,21.569
		L420,295.34V163.59L256.42,0h-91.63L0,163.8v88.9L167.29,420h129.04l0,0l20.74-20.94L294.5,377.49L283.819,389"/>
	<g>
		<rect x="430" y="163" fill="#686868" width="28" height="132"/>
		<rect x="488" y="163" fill="#686868" width="27" height="132"/>
		<rect x="448" y="163" fill="#686868" width="64" height="30"/>
		<rect x="439" y="225" fill="#686868" width="63" height="10"/>
	</g>
	<g>
		<rect x="524" y="162" fill="#686868" width="28" height="132"/>
		<rect x="582" y="162" fill="#686868" width="28" height="132"/>
		<rect x="530" y="162" fill="#686868" width="73" height="31"/>
		<rect x="533" y="284" fill="#686868" width="63" height="10"/>
	</g>
	<g>
		<rect x="619" y="163" fill="#686868" width="27" height="132"/>
		<rect x="676" y="163" fill="#686868" width="28" height="132"/>
		<rect x="636" y="163" fill="#686868" width="64" height="30"/>
		<rect x="627" y="225" fill="#686868" width="64" height="10"/>
	</g>
	<g>
		<rect x="713" y="162" fill="#686868" width="27" height="132"/>
		<rect x="771" y="162" fill="#686868" width="27" height="132"/>
		<rect x="731" y="162" fill="#686868" width="55" height="31"/>
		<rect x="751" y="165" fill="#686868" width="9" height="69"/>
	</g>
	<g>
		<rect x="807" y="162" fill="#686868" width="28" height="72"/>
		<rect x="829" y="224" fill="#686868" width="63" height="10"/>
		<rect x="807" y="284" fill="#686868" width="63" height="10"/>
		<rect x="865" y="224" fill="#686868" width="27" height="70"/>
		<rect x="827" y="162" fill="#686868" width="65" height="31"/>
	</g>
	<rect x="807" y="262" fill="#686868" width="28" height="31"/>
	<g>
		<rect x="901" y="162" fill="#686868" width="28" height="132"/>
		<rect x="960" y="263" fill="#686868" width="28" height="31"/>
		<rect x="959" y="162" fill="#686868" width="28" height="31"/>
	</g>
	<rect x="922" y="224" fill="#686868" width="64" height="10"/>
	<g>
		<rect x="996" y="209" fill="#686868" width="28" height="85"/>
		<rect x="996" y="162" fill="#00BDFF" width="28" height="31"/>
	</g>
	<rect x="450.5" y="305" fill="none" width="582.5" height="56.5"/>
</g>
</svg>
